<mxfile host="app.diagrams.net" modified="2022-05-16T19:44:32.794Z" agent="5.0 (Windows NT 10.0; Win64; x64) AppleWebKit/537.36 (KHTML, like Gecko) Chrome/101.0.4951.67 Safari/537.36" etag="6UxnsQ3AYCciGVgylwaC" version="18.0.6" type="github">
  <diagram id="L1Gv5uXi_aDk_ALbzG3f" name="Page-1">
    <mxGraphModel dx="2377" dy="803" grid="1" gridSize="10" guides="1" tooltips="1" connect="1" arrows="1" fold="1" page="1" pageScale="1" pageWidth="827" pageHeight="1169" math="0" shadow="0">
      <root>
        <mxCell id="0" />
        <mxCell id="1" parent="0" />
        <mxCell id="o7j9UfHQ2zpcAkyGtgfk-1" style="edgeStyle=orthogonalEdgeStyle;rounded=0;orthogonalLoop=1;jettySize=auto;html=1;exitX=0.5;exitY=1;exitDx=0;exitDy=0;entryX=0.5;entryY=0;entryDx=0;entryDy=0;fontSize=29;" edge="1" parent="1" source="o7j9UfHQ2zpcAkyGtgfk-2" target="o7j9UfHQ2zpcAkyGtgfk-4">
          <mxGeometry relative="1" as="geometry" />
        </mxCell>
        <mxCell id="o7j9UfHQ2zpcAkyGtgfk-2" value="&lt;p style=&quot;line-height: normal; margin: 0pt 0in; text-indent: 0in; direction: ltr; unicode-bidi: embed; vertical-align: baseline; word-break: normal;&quot;&gt;&lt;span style=&quot;font-size: 22pt; font-family: Arial; font-variant-numeric: normal; font-variant-east-asian: normal; color: rgb(23, 55, 94); font-weight: bold;&quot;&gt;dc=cc&lt;/span&gt;&lt;/p&gt;" style="rounded=1;whiteSpace=wrap;html=1;" vertex="1" parent="1">
          <mxGeometry x="320" y="40" width="120" height="40" as="geometry" />
        </mxCell>
        <mxCell id="o7j9UfHQ2zpcAkyGtgfk-3" style="edgeStyle=orthogonalEdgeStyle;rounded=0;orthogonalLoop=1;jettySize=auto;html=1;exitX=0.5;exitY=1;exitDx=0;exitDy=0;entryX=0.5;entryY=0;entryDx=0;entryDy=0;fontSize=29;" edge="1" parent="1" source="o7j9UfHQ2zpcAkyGtgfk-4" target="o7j9UfHQ2zpcAkyGtgfk-7">
          <mxGeometry relative="1" as="geometry" />
        </mxCell>
        <mxCell id="o7j9UfHQ2zpcAkyGtgfk-4" value="&lt;p style=&quot;line-height: normal; margin: 0pt 0in; text-indent: 0in; direction: ltr; unicode-bidi: embed; vertical-align: baseline; word-break: normal;&quot;&gt;&lt;span style=&quot;font-size: 22pt; font-family: Arial; font-variant-numeric: normal; font-variant-east-asian: normal; color: rgb(23, 55, 94); font-weight: bold;&quot;&gt;d&lt;/span&gt;&lt;span style=&quot;font-size: 22pt; font-family: Arial; font-variant-numeric: normal; font-variant-east-asian: normal; color: rgb(23, 55, 94); font-weight: bold; vertical-align: baseline;&quot;&gt;c=&lt;/span&gt;&lt;span style=&quot;font-size: 22pt; font-family: Arial; font-variant-numeric: normal; font-variant-east-asian: normal; color: rgb(23, 55, 94); font-weight: bold; vertical-align: baseline;&quot;&gt;nckucs&lt;/span&gt;&lt;/p&gt;" style="rounded=1;whiteSpace=wrap;html=1;" vertex="1" parent="1">
          <mxGeometry x="300" y="100" width="160" height="40" as="geometry" />
        </mxCell>
        <mxCell id="o7j9UfHQ2zpcAkyGtgfk-5" style="edgeStyle=orthogonalEdgeStyle;rounded=0;orthogonalLoop=1;jettySize=auto;html=1;exitX=0.25;exitY=1;exitDx=0;exitDy=0;entryX=0.5;entryY=0;entryDx=0;entryDy=0;fontSize=29;" edge="1" parent="1" source="o7j9UfHQ2zpcAkyGtgfk-7" target="o7j9UfHQ2zpcAkyGtgfk-8">
          <mxGeometry relative="1" as="geometry" />
        </mxCell>
        <mxCell id="o7j9UfHQ2zpcAkyGtgfk-6" style="edgeStyle=orthogonalEdgeStyle;rounded=0;orthogonalLoop=1;jettySize=auto;html=1;exitX=0.75;exitY=1;exitDx=0;exitDy=0;entryX=0.5;entryY=0;entryDx=0;entryDy=0;fontSize=29;" edge="1" parent="1" source="o7j9UfHQ2zpcAkyGtgfk-7" target="o7j9UfHQ2zpcAkyGtgfk-9">
          <mxGeometry relative="1" as="geometry" />
        </mxCell>
        <mxCell id="o7j9UfHQ2zpcAkyGtgfk-7" value="&lt;p style=&quot;line-height: normal; margin: 0pt 0in; text-indent: 0in; direction: ltr; unicode-bidi: embed; vertical-align: baseline; word-break: normal;&quot;&gt;&lt;span style=&quot;font-size: 22pt; font-family: Arial; font-variant-numeric: normal; font-variant-east-asian: normal; color: rgb(23, 55, 94); font-weight: bold;&quot;&gt;dc=&lt;/span&gt;&lt;span style=&quot;font-size: 22pt; font-family: Arial; font-variant-numeric: normal; font-variant-east-asian: normal; color: rgb(23, 55, 94); font-weight: bold;&quot;&gt;na&lt;/span&gt;&lt;/p&gt;" style="rounded=1;whiteSpace=wrap;html=1;" vertex="1" parent="1">
          <mxGeometry x="320" y="160" width="120" height="40" as="geometry" />
        </mxCell>
        <mxCell id="o7j9UfHQ2zpcAkyGtgfk-8" value="&lt;p style=&quot;line-height: normal; margin: 0pt 0in; text-indent: 0in; direction: ltr; unicode-bidi: embed; vertical-align: baseline; word-break: normal;&quot;&gt;&lt;span style=&quot;font-size: 22pt; font-family: Arial; font-variant-numeric: normal; font-variant-east-asian: normal; color: rgb(23, 55, 94); font-weight: bold;&quot;&gt;o&lt;/span&gt;&lt;span style=&quot;font-size: 22pt; font-family: Arial; font-variant-numeric: normal; font-variant-east-asian: normal; color: rgb(23, 55, 94); font-weight: bold; vertical-align: baseline;&quot;&gt;u&lt;/span&gt;&lt;span style=&quot;font-size: 22pt; font-family: Arial; font-variant-numeric: normal; font-variant-east-asian: normal; color: rgb(23, 55, 94); font-weight: bold; vertical-align: baseline;&quot;&gt;=&lt;/span&gt;&lt;span style=&quot;font-size: 22pt; font-family: Arial; font-variant-numeric: normal; font-variant-east-asian: normal; color: rgb(23, 55, 94); font-weight: bold;&quot;&gt;Group&lt;/span&gt;&lt;/p&gt;" style="rounded=1;whiteSpace=wrap;html=1;" vertex="1" parent="1">
          <mxGeometry x="210" y="240" width="160" height="40" as="geometry" />
        </mxCell>
        <mxCell id="o7j9UfHQ2zpcAkyGtgfk-9" value="&lt;p style=&quot;line-height: normal; margin: 0pt 0in; text-indent: 0in; direction: ltr; unicode-bidi: embed; vertical-align: baseline; word-break: normal;&quot;&gt;&lt;span style=&quot;font-size: 22pt; font-family: Arial; font-variant-numeric: normal; font-variant-east-asian: normal; color: rgb(23, 55, 94); font-weight: bold;&quot;&gt;o&lt;/span&gt;&lt;span style=&quot;font-size: 22pt; font-family: Arial; font-variant-numeric: normal; font-variant-east-asian: normal; color: rgb(23, 55, 94); font-weight: bold; vertical-align: baseline;&quot;&gt;u&lt;/span&gt;&lt;span style=&quot;font-size: 22pt; font-family: Arial; font-variant-numeric: normal; font-variant-east-asian: normal; color: rgb(23, 55, 94); font-weight: bold; vertical-align: baseline;&quot;&gt;=&lt;/span&gt;&lt;span style=&quot;font-size: 22pt; font-family: Arial; font-variant-numeric: normal; font-variant-east-asian: normal; color: rgb(23, 55, 94); font-weight: bold;&quot;&gt;People&lt;/span&gt;&lt;/p&gt;" style="rounded=1;whiteSpace=wrap;html=1;" vertex="1" parent="1">
          <mxGeometry x="390" y="240" width="160" height="40" as="geometry" />
        </mxCell>
        <mxCell id="o7j9UfHQ2zpcAkyGtgfk-10" style="edgeStyle=orthogonalEdgeStyle;rounded=0;orthogonalLoop=1;jettySize=auto;html=1;exitX=0.5;exitY=1;exitDx=0;exitDy=0;entryX=0.5;entryY=0;entryDx=0;entryDy=0;fontSize=29;" edge="1" parent="1" source="o7j9UfHQ2zpcAkyGtgfk-11" target="o7j9UfHQ2zpcAkyGtgfk-13">
          <mxGeometry relative="1" as="geometry" />
        </mxCell>
        <mxCell id="o7j9UfHQ2zpcAkyGtgfk-11" value="&lt;p style=&quot;line-height: normal; margin: 0pt 0in; text-indent: 0in; direction: ltr; unicode-bidi: embed; vertical-align: baseline; word-break: normal;&quot;&gt;&lt;span style=&quot;font-size: 22pt; font-family: Arial; font-variant-numeric: normal; font-variant-east-asian: normal; color: rgb(23, 55, 94); font-weight: bold;&quot;&gt;dc=cc&lt;/span&gt;&lt;/p&gt;" style="rounded=1;whiteSpace=wrap;html=1;" vertex="1" parent="1">
          <mxGeometry x="320" y="40" width="120" height="40" as="geometry" />
        </mxCell>
        <mxCell id="o7j9UfHQ2zpcAkyGtgfk-12" style="edgeStyle=orthogonalEdgeStyle;rounded=0;orthogonalLoop=1;jettySize=auto;html=1;exitX=0.5;exitY=1;exitDx=0;exitDy=0;entryX=0.5;entryY=0;entryDx=0;entryDy=0;fontSize=29;" edge="1" parent="1" source="o7j9UfHQ2zpcAkyGtgfk-13" target="o7j9UfHQ2zpcAkyGtgfk-16">
          <mxGeometry relative="1" as="geometry" />
        </mxCell>
        <mxCell id="o7j9UfHQ2zpcAkyGtgfk-13" value="&lt;p style=&quot;line-height: normal; margin: 0pt 0in; text-indent: 0in; direction: ltr; unicode-bidi: embed; vertical-align: baseline; word-break: normal;&quot;&gt;&lt;span style=&quot;font-size: 22pt; font-family: Arial; font-variant-numeric: normal; font-variant-east-asian: normal; color: rgb(23, 55, 94); font-weight: bold;&quot;&gt;d&lt;/span&gt;&lt;span style=&quot;font-size: 22pt; font-family: Arial; font-variant-numeric: normal; font-variant-east-asian: normal; color: rgb(23, 55, 94); font-weight: bold; vertical-align: baseline;&quot;&gt;c=&lt;/span&gt;&lt;span style=&quot;font-size: 22pt; font-family: Arial; font-variant-numeric: normal; font-variant-east-asian: normal; color: rgb(23, 55, 94); font-weight: bold; vertical-align: baseline;&quot;&gt;nckucs&lt;/span&gt;&lt;/p&gt;" style="rounded=1;whiteSpace=wrap;html=1;" vertex="1" parent="1">
          <mxGeometry x="300" y="100" width="160" height="40" as="geometry" />
        </mxCell>
        <mxCell id="o7j9UfHQ2zpcAkyGtgfk-14" style="edgeStyle=orthogonalEdgeStyle;rounded=0;orthogonalLoop=1;jettySize=auto;html=1;exitX=0.25;exitY=1;exitDx=0;exitDy=0;entryX=0.5;entryY=0;entryDx=0;entryDy=0;fontSize=29;" edge="1" parent="1" source="o7j9UfHQ2zpcAkyGtgfk-16" target="o7j9UfHQ2zpcAkyGtgfk-17">
          <mxGeometry relative="1" as="geometry" />
        </mxCell>
        <mxCell id="o7j9UfHQ2zpcAkyGtgfk-15" style="edgeStyle=orthogonalEdgeStyle;rounded=0;orthogonalLoop=1;jettySize=auto;html=1;exitX=0.75;exitY=1;exitDx=0;exitDy=0;entryX=0.5;entryY=0;entryDx=0;entryDy=0;fontSize=29;" edge="1" parent="1" source="o7j9UfHQ2zpcAkyGtgfk-16" target="o7j9UfHQ2zpcAkyGtgfk-19">
          <mxGeometry relative="1" as="geometry" />
        </mxCell>
        <mxCell id="o7j9UfHQ2zpcAkyGtgfk-16" value="&lt;p style=&quot;line-height: normal; margin: 0pt 0in; text-indent: 0in; direction: ltr; unicode-bidi: embed; vertical-align: baseline; word-break: normal;&quot;&gt;&lt;span style=&quot;font-size: 22pt; font-family: Arial; font-variant-numeric: normal; font-variant-east-asian: normal; color: rgb(23, 55, 94); font-weight: bold;&quot;&gt;dc=&lt;/span&gt;&lt;span style=&quot;font-size: 22pt; font-family: Arial; font-variant-numeric: normal; font-variant-east-asian: normal; color: rgb(23, 55, 94); font-weight: bold;&quot;&gt;na&lt;/span&gt;&lt;/p&gt;" style="rounded=1;whiteSpace=wrap;html=1;" vertex="1" parent="1">
          <mxGeometry x="320" y="160" width="120" height="40" as="geometry" />
        </mxCell>
        <mxCell id="o7j9UfHQ2zpcAkyGtgfk-27" style="edgeStyle=orthogonalEdgeStyle;rounded=0;orthogonalLoop=1;jettySize=auto;html=1;exitX=0.5;exitY=1;exitDx=0;exitDy=0;fontColor=#FF8000;" edge="1" parent="1" source="o7j9UfHQ2zpcAkyGtgfk-17" target="o7j9UfHQ2zpcAkyGtgfk-21">
          <mxGeometry relative="1" as="geometry" />
        </mxCell>
        <mxCell id="o7j9UfHQ2zpcAkyGtgfk-17" value="&lt;p style=&quot;line-height: normal; margin: 0pt 0in; text-indent: 0in; direction: ltr; unicode-bidi: embed; vertical-align: baseline; word-break: normal;&quot;&gt;&lt;span style=&quot;font-size: 22pt; font-family: Arial; font-variant-numeric: normal; font-variant-east-asian: normal; color: rgb(23, 55, 94); font-weight: bold;&quot;&gt;o&lt;/span&gt;&lt;span style=&quot;font-size: 22pt; font-family: Arial; font-variant-numeric: normal; font-variant-east-asian: normal; color: rgb(23, 55, 94); font-weight: bold; vertical-align: baseline;&quot;&gt;u&lt;/span&gt;&lt;span style=&quot;font-size: 22pt; font-family: Arial; font-variant-numeric: normal; font-variant-east-asian: normal; color: rgb(23, 55, 94); font-weight: bold; vertical-align: baseline;&quot;&gt;=&lt;/span&gt;&lt;span style=&quot;font-size: 22pt; font-family: Arial; font-variant-numeric: normal; font-variant-east-asian: normal; color: rgb(23, 55, 94); font-weight: bold;&quot;&gt;Group&lt;/span&gt;&lt;/p&gt;" style="rounded=1;whiteSpace=wrap;html=1;" vertex="1" parent="1">
          <mxGeometry x="210" y="240" width="160" height="40" as="geometry" />
        </mxCell>
        <mxCell id="o7j9UfHQ2zpcAkyGtgfk-24" style="edgeStyle=orthogonalEdgeStyle;rounded=0;orthogonalLoop=1;jettySize=auto;html=1;exitX=0.5;exitY=1;exitDx=0;exitDy=0;entryX=0.5;entryY=0;entryDx=0;entryDy=0;" edge="1" parent="1" source="o7j9UfHQ2zpcAkyGtgfk-19" target="o7j9UfHQ2zpcAkyGtgfk-20">
          <mxGeometry relative="1" as="geometry" />
        </mxCell>
        <mxCell id="o7j9UfHQ2zpcAkyGtgfk-19" value="&lt;p style=&quot;line-height: normal; margin: 0pt 0in; text-indent: 0in; direction: ltr; unicode-bidi: embed; vertical-align: baseline; word-break: normal;&quot;&gt;&lt;span style=&quot;font-size: 22pt; font-family: Arial; font-variant-numeric: normal; font-variant-east-asian: normal; color: rgb(23, 55, 94); font-weight: bold;&quot;&gt;o&lt;/span&gt;&lt;span style=&quot;font-size: 22pt; font-family: Arial; font-variant-numeric: normal; font-variant-east-asian: normal; color: rgb(23, 55, 94); font-weight: bold; vertical-align: baseline;&quot;&gt;u&lt;/span&gt;&lt;span style=&quot;font-size: 22pt; font-family: Arial; font-variant-numeric: normal; font-variant-east-asian: normal; color: rgb(23, 55, 94); font-weight: bold; vertical-align: baseline;&quot;&gt;=&lt;/span&gt;&lt;span style=&quot;font-size: 22pt; font-family: Arial; font-variant-numeric: normal; font-variant-east-asian: normal; color: rgb(23, 55, 94); font-weight: bold;&quot;&gt;People&lt;/span&gt;&lt;/p&gt;" style="rounded=1;whiteSpace=wrap;html=1;" vertex="1" parent="1">
          <mxGeometry x="390" y="240" width="160" height="40" as="geometry" />
        </mxCell>
        <mxCell id="o7j9UfHQ2zpcAkyGtgfk-20" value="&lt;p style=&quot;line-height: normal; margin: 0pt 0in; text-indent: 0in; direction: ltr; unicode-bidi: embed; vertical-align: baseline; word-break: normal;&quot;&gt;&lt;span style=&quot;font-size: 22pt; font-family: Arial; font-variant-numeric: normal; font-variant-east-asian: normal; color: rgb(23, 55, 94); font-weight: bold;&quot;&gt;cn&lt;/span&gt;&lt;span style=&quot;font-size: 22pt; font-family: Arial; font-variant-numeric: normal; font-variant-east-asian: normal; color: rgb(23, 55, 94); font-weight: bold; vertical-align: baseline;&quot;&gt;=&lt;/span&gt;&lt;span style=&quot;font-size: 22pt; font-family: Arial; font-variant-numeric: normal; font-variant-east-asian: normal; color: rgb(23, 55, 94); font-weight: bold; vertical-align: baseline;&quot;&gt;vinc&lt;/span&gt;&lt;/p&gt;" style="rounded=1;whiteSpace=wrap;html=1;strokeColor=#97D077;dashed=1;fillColor=#D5E8D4;" vertex="1" parent="1">
          <mxGeometry x="480" y="310" width="130" height="40" as="geometry" />
        </mxCell>
        <mxCell id="o7j9UfHQ2zpcAkyGtgfk-21" value="&lt;p style=&quot;line-height: normal; margin: 0pt 0in; text-indent: 0in; direction: ltr; unicode-bidi: embed; vertical-align: baseline; word-break: normal;&quot;&gt;&lt;span style=&quot;font-size: 22pt; font-family: Arial; font-variant-numeric: normal; font-variant-east-asian: normal; color: rgb(23, 55, 94); font-weight: bold;&quot;&gt;cn&lt;/span&gt;&lt;span style=&quot;font-size: 22pt; font-family: Arial; font-variant-numeric: normal; font-variant-east-asian: normal; color: rgb(23, 55, 94); font-weight: bold; vertical-align: baseline;&quot;&gt;=&lt;/span&gt;&lt;span style=&quot;font-size: 22pt; font-family: Arial; font-variant-numeric: normal; font-variant-east-asian: normal; color: rgb(23, 55, 94); font-weight: bold; vertical-align: baseline;&quot;&gt;nata&lt;/span&gt;&lt;/p&gt;" style="rounded=1;whiteSpace=wrap;html=1;fillColor=#A9C4EB;" vertex="1" parent="1">
          <mxGeometry x="150" y="310" width="130" height="40" as="geometry" />
        </mxCell>
        <mxCell id="o7j9UfHQ2zpcAkyGtgfk-22" value="&lt;p style=&quot;line-height: normal; margin-top: 0pt; margin-bottom: 0pt; margin-right: 0in; direction: ltr; unicode-bidi: embed;&quot;&gt;&lt;font face=&quot;Arial&quot;&gt;&lt;span style=&quot;font-size: 26.6667px;&quot;&gt;objectClass: posixGroup&lt;/span&gt;&lt;/font&gt;&lt;/p&gt;&lt;p style=&quot;line-height: normal; margin-top: 0pt; margin-bottom: 0pt; margin-right: 0in; direction: ltr; unicode-bidi: embed;&quot;&gt;&lt;font face=&quot;Arial&quot;&gt;&lt;span style=&quot;font-size: 26.6667px;&quot;&gt;objectClass: top&lt;/span&gt;&lt;/font&gt;&lt;/p&gt;&lt;p style=&quot;line-height: normal; margin-top: 0pt; margin-bottom: 0pt; margin-right: 0in; direction: ltr; unicode-bidi: embed;&quot;&gt;&lt;font face=&quot;Arial&quot;&gt;&lt;span style=&quot;font-size: 26.6667px;&quot;&gt;objectClass: posixAccount&lt;/span&gt;&lt;/font&gt;&lt;/p&gt;&lt;p style=&quot;line-height: normal; margin-top: 0pt; margin-bottom: 0pt; margin-right: 0in; direction: ltr; unicode-bidi: embed;&quot;&gt;&lt;font face=&quot;Arial&quot;&gt;&lt;span style=&quot;font-size: 26.6667px;&quot;&gt;cn: vinc&lt;/span&gt;&lt;/font&gt;&lt;/p&gt;&lt;p style=&quot;line-height: normal; margin-top: 0pt; margin-bottom: 0pt; margin-right: 0in; direction: ltr; unicode-bidi: embed;&quot;&gt;&lt;font color=&quot;#ff8000&quot; face=&quot;Arial&quot;&gt;&lt;span style=&quot;font-size: 26.6667px;&quot;&gt;gidNumber: 1234&lt;/span&gt;&lt;/font&gt;&lt;/p&gt;&lt;div&gt;&lt;br&gt;&lt;/div&gt;" style="rounded=0;whiteSpace=wrap;html=1;dashed=1;strokeColor=#97D077;fillColor=#d5e8d4;strokeWidth=4;dashPattern=1 1;align=left;" vertex="1" parent="1">
          <mxGeometry x="350" y="370" width="414" height="180" as="geometry" />
        </mxCell>
        <mxCell id="o7j9UfHQ2zpcAkyGtgfk-23" value="&lt;p style=&quot;line-height: normal; margin-top: 0pt; margin-bottom: 0pt; margin-right: 0in; direction: ltr; unicode-bidi: embed;&quot;&gt;&lt;font face=&quot;Arial&quot;&gt;&lt;span style=&quot;font-size: 26.6667px;&quot;&gt;objectClass: posixGroup&lt;/span&gt;&lt;/font&gt;&lt;/p&gt;&lt;p style=&quot;line-height: normal; margin-top: 0pt; margin-bottom: 0pt; margin-right: 0in; direction: ltr; unicode-bidi: embed;&quot;&gt;&lt;font face=&quot;Arial&quot;&gt;&lt;span style=&quot;font-size: 26.6667px;&quot;&gt;objectClass: top&lt;/span&gt;&lt;/font&gt;&lt;/p&gt;&lt;p style=&quot;line-height: normal; margin-top: 0pt; margin-bottom: 0pt; margin-right: 0in; direction: ltr; unicode-bidi: embed;&quot;&gt;&lt;font face=&quot;Arial&quot;&gt;&lt;span style=&quot;font-size: 26.6667px;&quot;&gt;cn: nata&lt;/span&gt;&lt;/font&gt;&lt;/p&gt;&lt;p style=&quot;line-height: normal; margin-top: 0pt; margin-bottom: 0pt; margin-right: 0in; direction: ltr; unicode-bidi: embed;&quot;&gt;&lt;font face=&quot;Arial&quot;&gt;&lt;span style=&quot;font-size: 26.6667px;&quot;&gt;displayName: nata&lt;/span&gt;&lt;/font&gt;&lt;/p&gt;&lt;p style=&quot;line-height: normal; margin-top: 0pt; margin-bottom: 0pt; margin-right: 0in; direction: ltr; unicode-bidi: embed;&quot;&gt;&lt;font face=&quot;Arial&quot;&gt;&lt;span style=&quot;font-size: 26.6667px;&quot;&gt;description: Domain Unix group&lt;/span&gt;&lt;/font&gt;&lt;/p&gt;&lt;p style=&quot;line-height: normal; margin-top: 0pt; margin-bottom: 0pt; margin-right: 0in; direction: ltr; unicode-bidi: embed;&quot;&gt;&lt;font color=&quot;#ff8000&quot; face=&quot;Arial&quot;&gt;&lt;span style=&quot;font-size: 26.6667px;&quot;&gt;gidNumber: 1234&lt;/span&gt;&lt;/font&gt;&lt;/p&gt;&lt;div&gt;&lt;br&gt;&lt;/div&gt;" style="rounded=0;whiteSpace=wrap;html=1;dashed=1;strokeColor=#A9C4EB;fillColor=#A9C4EB;strokeWidth=4;dashPattern=1 1;align=left;" vertex="1" parent="1">
          <mxGeometry x="-94" y="370" width="414" height="200" as="geometry" />
        </mxCell>
      </root>
    </mxGraphModel>
  </diagram>
</mxfile>
